<svg xmlns="http://www.w3.org/2000/svg" xmlns:xlink="http://www.w3.org/1999/xlink" viewBox="0 0 1366 650"><defs><style>.cls-1{fill:none;}.cls-2{clip-path:url(#clip-path);}.cls-3{fill:#15006d;}.cls-4{fill:url(#linear-gradient);}.cls-5{fill:url(#linear-gradient-2);}.cls-6{opacity:0.25;fill:url(#radial-gradient);}.cls-7{font-size:32px;}.cls-11,.cls-7{fill:#ffd654;}.cls-7,.cls-8{font-family:OpenSans-Bold, Open Sans;font-weight:700;}.cls-8{font-size:42px;fill:#ff8080;}.cls-9{font-size:106.71px;font-family:FredokaOne-Regular, Fredoka One;}.cls-13,.cls-9{fill:#fff;}.cls-10,.cls-12,.cls-14,.cls-15,.cls-17,.cls-18,.cls-19,.cls-20,.cls-21,.cls-22,.cls-23,.cls-24{opacity:0.2;}.cls-10{fill:url(#radial-gradient-2);}.cls-12{fill:url(#radial-gradient-3);}.cls-14{fill:url(#radial-gradient-4);}.cls-15{fill:url(#radial-gradient-5);}.cls-16{fill:#4be1d9;}.cls-17{fill:url(#radial-gradient-6);}.cls-18{fill:url(#radial-gradient-7);}.cls-19{fill:url(#radial-gradient-8);}.cls-20{fill:url(#radial-gradient-9);}.cls-21{fill:url(#radial-gradient-10);}.cls-22{fill:url(#radial-gradient-11);}.cls-23{fill:url(#radial-gradient-12);}.cls-24{fill:url(#radial-gradient-13);}</style><clipPath id="clip-path"><rect class="cls-1" width="1366" height="651" rx="30"/></clipPath><linearGradient id="linear-gradient" x1="3464.44" y1="-135.3" x2="2489.07" y2="926.82" gradientTransform="matrix(-1, 0, 0, 1, 3076.09, 0)" gradientUnits="userSpaceOnUse"><stop offset="0" stop-color="#de6e7d"/><stop offset="0.39" stop-color="#471bb1"/><stop offset="0.63" stop-color="#15006d"/></linearGradient><linearGradient id="linear-gradient-2" x1="1202.06" y1="699.58" x2="621.9" y2="119.43" gradientUnits="userSpaceOnUse"><stop offset="0" stop-color="#ff8080"/><stop offset="0.03" stop-color="#e37187" stop-opacity="0.92"/><stop offset="0.09" stop-color="#ba5a92" stop-opacity="0.81"/><stop offset="0.15" stop-color="#97479c" stop-opacity="0.72"/><stop offset="0.21" stop-color="#7a37a3" stop-opacity="0.64"/><stop offset="0.27" stop-color="#642ba9" stop-opacity="0.58"/><stop offset="0.33" stop-color="#5422ae" stop-opacity="0.53"/><stop offset="0.4" stop-color="#4a1db0" stop-opacity="0.51"/><stop offset="0.46" stop-color="#471bb1" stop-opacity="0.5"/><stop offset="0.83" stop-color="#471bb1" stop-opacity="0"/></linearGradient><radialGradient id="radial-gradient" cx="4423.91" cy="-6023.47" r="188.44" gradientTransform="translate(7239.73 -3251.55) rotate(-154.97)" gradientUnits="userSpaceOnUse"><stop offset="0.52" stop-color="#fff" stop-opacity="0"/><stop offset="0.89" stop-color="#ffd654"/></radialGradient><radialGradient id="radial-gradient-2" cx="748.5" cy="-4579.27" r="8.9" gradientTransform="translate(4597.02 -2643.76) rotate(-135)" gradientUnits="userSpaceOnUse"><stop offset="0.52" stop-color="#ffd654" stop-opacity="0"/><stop offset="1" stop-color="#ffd654"/></radialGradient><radialGradient id="radial-gradient-3" cx="610.23" cy="-5136.99" r="8.9" gradientTransform="translate(4597.02 -2643.76) rotate(-135)" gradientUnits="userSpaceOnUse"><stop offset="0.52" stop-color="#fff" stop-opacity="0"/><stop offset="1" stop-color="#fff"/></radialGradient><radialGradient id="radial-gradient-4" cx="562.28" cy="-4580.65" r="9.46" xlink:href="#radial-gradient-3"/><radialGradient id="radial-gradient-5" cx="786.49" cy="-5191.43" r="6.12" gradientTransform="translate(4597.02 -2643.76) rotate(-135)" gradientUnits="userSpaceOnUse"><stop offset="0.52" stop-color="#4be1d9" stop-opacity="0"/><stop offset="1" stop-color="#4be1d9"/></radialGradient><radialGradient id="radial-gradient-6" cx="164.94" cy="-4661.81" r="6.12" xlink:href="#radial-gradient-5"/><radialGradient id="radial-gradient-7" cx="404.61" cy="-4363.73" r="6.12" xlink:href="#radial-gradient-5"/><radialGradient id="radial-gradient-8" cx="391.32" cy="-4887.76" r="6.12" xlink:href="#radial-gradient-2"/><radialGradient id="radial-gradient-9" cx="-55.09" cy="-4032.34" r="8.9" gradientTransform="matrix(0.71, -0.71, -0.71, -0.71, -2607.8, -2643.76)" xlink:href="#radial-gradient-2"/><radialGradient id="radial-gradient-10" cx="213.22" cy="-4080.23" r="8.9" gradientTransform="matrix(0.71, -0.71, -0.71, -0.71, -2607.8, -2643.76)" xlink:href="#radial-gradient-3"/><radialGradient id="radial-gradient-11" cx="23.85" cy="-3849.16" r="9.46" gradientTransform="matrix(0.71, -0.71, -0.71, -0.71, -2607.8, -2643.76)" xlink:href="#radial-gradient-3"/><radialGradient id="radial-gradient-12" cx="-296.41" cy="-4260.54" r="6.12" gradientTransform="matrix(0.71, -0.71, -0.71, -0.71, -2607.8, -2643.76)" xlink:href="#radial-gradient-5"/><radialGradient id="radial-gradient-13" cx="-267.32" cy="-4105.36" r="6.12" gradientTransform="matrix(0.71, -0.71, -0.71, -0.71, -2607.8, -2643.76)" xlink:href="#radial-gradient-2"/></defs><g id="Coming_Soon" data-name="Coming Soon"><g class="cls-2"><rect class="cls-3" width="1366" height="650"/><path class="cls-4" d="M389.5,408.74c-82.69-18-127-6.41-184.9-69.54-44.29-48.27-90.35-68.28-175.06-73.57Q14.81,264.71,0,264.7V650.61l562-.35C543.4,567.21,544.34,442.46,389.5,408.74Z"/><path class="cls-5" d="M469.36,650.58c1.34,0,8.62-69.7,9.57-75.85,4.1-26.56,9.82-53.42,21.42-77.83,11.48-24.18,29-44.62,53.2-56.63,25.52-12.65,54.52-16.36,79.63-29.83,33.49-18,49.42-53.62,74.74-80.11,17.6-18.41,39.16-31.82,64.32-36.76,26.86-5.28,55-2.33,81.07,5.5,31.26,9.39,58.7,28,89.83,37.75l.17.05c19.35,6,39.77,6.8,58.21-2.57,56.26-28.58,83.66-97.88,132-136.91,15.91-12.86,33.79-23.46,53.36-30.16,58.5-20,122.66-4.2,179.59,13v471.2Z"/><circle class="cls-6" cx="683" cy="334.87" r="188.44"/><text class="cls-7" transform="translate(578.54 270.72) scale(1.15 1)">A GUIDE TO</text><text class="cls-8" transform="translate(447.17 453.72) scale(1.15 1)"><tspan xml:space="preserve">C O M I N G  S O O N</tspan></text><text class="cls-9" transform="translate(209.9 376.1)">LENDING MARKET</text><circle class="cls-10" cx="829.72" cy="65" r="8.9"/><circle class="cls-11" cx="829.72" cy="65" r="4.71"/><circle class="cls-12" cx="533.13" cy="557.14" r="8.9"/><circle class="cls-13" cx="533.13" cy="557.14" r="4.71"/><circle class="cls-14" cx="960.43" cy="197.66" r="9.46"/><circle class="cls-13" cx="960.43" cy="197.66" r="5"/><circle class="cls-15" cx="370" cy="471.01" r="6.12"/><circle class="cls-16" cx="370" cy="471.01" r="3.24"/><circle class="cls-17" cx="1184" cy="536.01" r="6.12"/><circle class="cls-16" cx="1184" cy="536.01" r="3.24"/><circle class="cls-18" cx="1225.29" cy="155.76" r="6.12"/><circle class="cls-16" cx="1225.29" cy="155.76" r="3.24"/><circle class="cls-19" cx="864.15" cy="535.71" r="6.12"/><circle class="cls-11" cx="864.15" cy="535.71" r="3.24"/><circle class="cls-20" cx="204.54" cy="246.49" r="8.9"/><circle class="cls-11" cx="204.54" cy="246.49" r="4.71"/><circle class="cls-21" cx="428.13" cy="90.63" r="8.9"/><circle class="cls-13" cx="428.13" cy="90.63" r="4.71"/><circle class="cls-22" cx="130.83" cy="61.14" r="9.46"/><circle class="cls-13" cx="130.83" cy="61.14" r="5"/><circle class="cls-23" cx="195.26" cy="578.5" r="6.12"/><circle class="cls-16" cx="195.26" cy="578.5" r="3.24"/><circle class="cls-24" cx="106.1" cy="448.19" r="6.12"/><circle class="cls-11" cx="106.1" cy="448.19" r="3.24"/></g></g></svg>