<svg width="1400" height="440" viewBox="0 0 1400 440" fill="none" xmlns="http://www.w3.org/2000/svg">
<path d="M540.858 162.017C539.546 161.142 537.795 160.267 535.607 159.392C532.982 158.516 529.919 158.516 525.543 158.516C521.167 158.516 517.667 158.954 515.041 159.829C512.416 160.704 510.666 162.017 509.79 163.767C508.478 165.955 508.04 167.706 507.603 169.456C507.603 171.206 507.165 173.832 507.165 177.332V225.465H443.716V177.332C443.716 172.081 443.279 168.143 442.841 165.955C441.091 161.142 435.403 158.516 425.338 158.516C416.149 158.516 410.898 160.267 408.71 163.767C407.398 165.955 406.96 167.706 406.523 169.456C406.523 171.206 406.085 173.832 406.085 177.332V303.792C406.085 309.042 406.523 312.543 407.398 315.169C409.148 319.982 414.836 322.607 424.463 322.607C433.652 322.607 438.903 320.857 441.091 317.356C442.404 315.169 442.841 313.418 443.279 311.668C443.716 309.918 443.716 307.292 443.716 303.792V255.658H507.165V303.354C507.165 308.605 507.603 312.105 508.478 314.731C510.228 319.544 515.916 322.17 525.543 322.17C534.732 322.17 539.983 320.419 542.171 316.919C543.484 314.731 543.921 312.981 544.359 311.23C544.796 309.48 544.796 306.855 544.796 303.354V176.895C544.796 171.644 544.359 167.706 543.921 165.518C543.046 164.205 542.171 162.892 540.858 162.017Z" fill="white"/>
<path d="M632.312 278.412C628.373 282.788 623.123 284.976 616.996 284.976C610.87 284.976 605.619 282.788 601.681 278.412C597.306 274.036 595.118 269.223 595.118 263.972C595.118 258.721 597.306 253.47 601.244 249.095C605.182 244.719 610.433 242.093 616.996 242.093C623.56 242.093 628.811 244.281 632.312 249.095C636.25 253.47 638 258.721 638 263.972C638.438 269.223 636.25 274.036 632.312 278.412ZM674.319 210.588C673.444 208.838 671.693 207.525 669.068 206.65C666.443 205.775 662.067 205.337 656.378 205.337C646.314 205.337 640.626 209.275 639.75 216.714L639.313 220.652L637.125 217.152C636.25 215.839 634.937 214.089 633.187 212.776C631.437 211.463 628.811 209.713 624.873 207.962C620.935 206.212 616.121 205.337 611.308 205.337C598.181 205.337 585.929 211.026 574.989 222.84C564.05 234.217 558.361 248.219 558.361 263.535C558.361 278.85 564.05 292.852 574.989 304.229C585.929 316.044 597.743 321.732 610.433 321.732C623.123 321.732 631.874 317.794 637.125 310.355L639.313 306.855L639.75 310.793C640.188 314.293 641.501 316.919 644.126 318.669C646.752 320.419 652.003 321.295 659.879 321.295C667.318 321.295 672.131 319.544 674.319 316.044C675.194 313.856 676.069 312.105 676.069 310.355C676.507 308.605 676.507 305.979 676.507 302.479V223.715C676.507 220.215 676.507 217.589 676.069 215.839C676.069 214.526 675.632 212.776 674.319 210.588Z" fill="white"/>
<path d="M749.145 288.914C747.832 288.039 746.519 287.164 745.644 287.164C744.769 287.164 743.456 286.726 739.518 286.726C736.017 286.726 733.392 285.851 732.079 283.663C731.204 282.788 730.329 280.162 730.329 272.286V167.268C730.329 163.767 730.329 161.142 729.891 159.392C729.891 157.641 729.016 155.891 727.703 153.703C725.515 150.202 720.265 148.452 711.513 148.452C702.324 148.452 697.073 150.202 694.885 153.703C694.01 155.891 693.135 157.641 693.135 159.392C693.135 161.142 692.697 163.767 692.697 167.268V275.787C692.697 291.539 694.885 303.354 698.823 310.793C701.886 316.481 709.325 320.419 720.702 321.732C738.643 323.92 745.206 322.17 747.832 320.419C749.582 319.107 751.77 315.168 751.77 304.229C753.083 293.727 750.895 290.227 749.145 288.914Z" fill="white"/>
<path d="M836.222 281.475C830.971 285.413 825.72 287.601 820.469 287.601C815.218 287.601 809.967 285.413 804.716 281.913C799.466 277.975 796.84 271.848 796.84 263.972C796.84 256.096 799.466 249.97 804.279 246.031C809.092 242.093 814.781 239.905 820.469 239.905C826.158 239.905 831.846 241.656 836.66 245.594C841.91 249.532 844.098 255.658 844.098 263.535C844.098 270.973 841.473 277.099 836.222 281.475ZM820.469 202.711C804.716 202.711 790.276 208.4 777.587 220.215C765.335 231.591 758.771 246.469 758.771 264.41C758.771 276.224 761.834 286.726 768.398 296.353C774.524 305.542 782.4 312.981 791.589 317.794C809.967 327.421 830.096 327.421 848.474 318.231C857.663 313.856 865.54 306.417 871.666 297.228C877.792 287.601 881.292 276.662 881.292 264.41C881.292 246.907 875.166 232.029 862.914 220.652C850.662 208.4 836.659 202.711 820.469 202.711Z" fill="white"/>
<path d="M988.498 272.286C979.309 280.6 969.244 284.976 957.867 284.976H934.238V195.71H957.43C969.244 195.71 979.746 200.086 988.498 208.4C997.249 217.152 1001.63 227.653 1001.63 240.343C1002.06 253.033 997.687 263.972 988.498 272.286ZM1014.75 181.708C998.562 166.393 979.309 158.516 957.867 158.516L915.86 158.079C906.671 158.079 901.42 159.829 899.232 163.33C897.92 165.518 897.482 167.268 897.044 168.581C897.044 170.331 896.607 172.956 896.607 176.457V303.354C896.607 309.48 897.482 314.293 899.232 317.356C900.983 320.419 906.671 322.17 915.423 322.17H956.992C979.746 322.17 999.437 313.856 1015.19 297.665C1031.38 281.475 1039.26 261.784 1039.26 239.03C1039.26 216.714 1031.38 197.023 1014.75 181.708Z" fill="white"/>
<path d="M1098.77 256.096L1116.27 219.777L1133.77 256.096H1098.77ZM1133.34 169.456C1129.83 162.017 1124.15 158.516 1116.27 158.516C1112.77 158.516 1109.27 159.392 1106.21 161.579C1103.14 163.33 1100.52 165.955 1099.2 169.456L1037.94 296.353C1035.32 301.166 1034.01 305.104 1034.01 307.292C1034.01 312.106 1038.38 316.481 1046.26 320.419C1051.07 323.045 1055.01 324.358 1057.63 324.358C1060.26 324.358 1062.45 323.92 1064.2 322.607C1065.95 321.295 1067.26 319.982 1067.7 318.669C1068.57 317.356 1069.89 315.169 1071.2 312.105L1083.45 286.726H1148.65L1160.9 312.105C1162.22 315.169 1163.53 317.356 1164.4 318.669C1165.28 319.982 1166.15 321.295 1167.9 322.607C1169.65 323.92 1171.84 324.358 1174.47 324.358C1177.09 324.358 1181.03 323.045 1185.84 320.857C1194.16 316.919 1198.1 312.106 1198.1 307.292C1198.1 305.104 1196.78 301.166 1194.6 296.353L1133.34 169.456Z" fill="white"/>
<path d="M1308.37 274.911C1299.61 283.225 1289.11 287.601 1278.17 287.601C1267.23 287.601 1256.73 283.225 1247.98 274.474C1238.79 265.722 1234.42 254.345 1234.42 240.343C1234.42 226.341 1238.79 214.964 1247.98 206.212C1256.73 197.461 1267.23 193.085 1278.17 193.085C1289.11 193.085 1299.61 197.461 1308.37 206.212C1317.56 214.964 1321.93 226.341 1321.93 240.781C1321.93 255.221 1317.56 266.598 1308.37 274.911ZM1335.06 180.395C1318.87 164.642 1299.61 156.328 1277.74 156.328C1267.67 156.328 1257.61 158.516 1247.98 162.455C1238.35 166.393 1229.6 172.519 1222.16 179.52C1214.73 186.959 1208.6 196.148 1204.22 206.65C1199.85 217.589 1197.66 228.966 1197.66 241.656C1197.66 264.41 1205.54 284.101 1221.73 300.291C1237.48 316.481 1257.17 324.795 1279.49 324.795C1302.24 324.795 1321.49 316.481 1336.81 299.853C1352.12 283.225 1360 263.097 1360 239.468C1359.13 216.276 1351.25 196.148 1335.06 180.395Z" fill="white"/>
<path d="M105.033 300.291C107.221 303.354 105.908 306.417 104.158 308.167C103.283 309.042 101.532 309.918 99.782 309.918C98.4693 309.918 97.1566 309.48 96.2814 308.605C78.7784 295.915 66.0887 277.099 60.4002 256.096C59.9626 254.346 60.4002 252.158 61.7129 250.845C63.0257 249.532 64.776 248.657 66.9638 249.095C71.3396 249.532 76.1529 250.407 81.8414 251.283C84.4669 251.72 87.0923 253.908 87.5299 256.533L105.033 300.291ZM269.999 225.466C248.995 228.966 207.426 234.655 160.167 234.655C112.909 234.655 70.902 228.966 50.336 225.466C49.8984 225.466 49.0232 225.466 48.5857 225.466C45.9602 225.466 42.8972 226.341 41.1469 228.529C38.959 230.716 37.6463 233.779 38.0838 236.843C43.3347 284.538 76.1529 327.858 119.91 344.486C120.348 344.924 121.223 345.361 121.223 345.799C121.223 346.674 121.223 347.112 120.786 347.549C114.222 353.238 110.284 360.676 108.534 369.428C108.096 371.616 108.534 373.804 110.284 375.992C111.597 377.742 113.784 378.617 115.972 378.617H205.238C207.426 378.617 209.613 377.742 210.926 375.992C212.239 374.241 213.114 372.053 212.677 369.428C210.926 360.676 206.55 353.675 200.424 347.549C199.987 347.112 199.549 346.236 199.987 345.799C199.987 344.924 200.424 344.486 201.3 344.486C244.62 327.858 277.875 284.101 283.564 236.405C284.001 233.342 282.689 230.279 280.501 228.091C277 225.903 273.5 224.59 269.999 225.466Z" fill="white"/>
<path d="M279.625 101.632L272.187 92.4424C268.248 87.6291 260.81 86.7539 255.559 90.6921L222.74 117.822L241.119 82.3782C244.182 76.6897 241.994 69.6885 235.868 66.6254L225.803 61.3745C220.115 58.3115 213.114 60.4994 210.051 66.6254L185.984 113.008C177.67 110.821 168.919 109.945 159.73 109.945C102.845 109.945 56.4617 153.265 52.0859 208.838C52.5235 208.838 52.9611 208.838 52.9611 208.838C73.0896 212.338 114.222 218.027 159.73 218.027C161.48 218.027 162.793 218.027 164.543 218.027C165.856 218.027 166.731 218.027 168.044 218.027C169.356 218.027 170.669 218.027 171.982 218.027C173.732 218.027 175.045 218.027 176.795 218.027C177.233 218.027 177.67 218.027 177.67 218.027C216.177 216.714 249.433 212.338 266.936 209.275C265.185 186.084 255.559 165.08 241.556 148.452L277.437 118.697C283.126 113.884 283.563 106.445 279.625 101.632Z" fill="white"/>
</svg>
