<svg width="512" height="512" viewBox="0 0 512 512" fill="none" xmlns="http://www.w3.org/2000/svg">
<path d="M182.177 364.624C184.895 368.693 183.536 372.965 181.049 375.389C179.632 376.746 177.579 377.727 175.41 377.727C173.82 377.727 172.172 377.208 170.61 376.082C147.014 358.851 130.012 333.827 122.58 305.629C121.915 303.147 122.58 300.52 124.315 298.644C126.05 296.682 128.681 295.7 131.313 296.162C137.038 296.999 143.805 297.98 151.294 298.875C155.053 299.337 158.147 302.108 159.044 305.86L182.177 364.624ZM403.127 264.442C375.223 269.118 319.096 276.94 256.029 276.94C192.963 276.94 136.72 269.118 108.932 264.442C108.093 264.298 107.283 264.211 106.531 264.211C102.772 264.211 99.0999 265.626 96.295 268.281C93.1431 271.283 91.6395 275.439 92.0732 279.624C99.5915 343.612 143.805 401.741 201.985 424.224C202.881 424.6 203.488 425.263 203.633 426.245C203.777 427.226 203.488 428.121 202.736 428.727C194.09 436.404 188.538 446.16 186.196 457.82C185.589 460.822 186.341 463.91 188.307 466.306C190.273 468.643 193.049 470 196.115 470H315.857C318.865 470 321.728 468.643 323.665 466.306C325.631 463.91 326.383 460.822 325.776 457.82C323.434 446.246 317.882 436.462 309.236 428.727C308.484 428.121 308.195 427.139 308.339 426.245C308.484 425.35 309.091 424.6 309.987 424.224C368.167 401.741 412.381 343.612 419.899 279.624C420.419 275.41 418.916 271.283 415.764 268.281C412.352 265.135 407.696 263.692 403.127 264.442Z" fill="white"/>
<path d="M415.879 98.4851L405.874 86.3918C400.38 79.6957 390.462 78.801 383.84 84.2848L339.945 120.536L364.379 73.0862C368.37 65.4088 365.276 55.942 357.613 51.959L343.617 44.7434C335.954 40.7604 326.47 43.8487 322.508 51.4972L290.411 113.84C279.134 111.069 267.422 109.539 255.22 109.539C179.459 109.539 117.288 167.812 111.042 242.046L112.459 242.191C139.583 246.693 194.235 254.284 255.653 254.371C257.822 254.371 259.933 254.371 262.131 254.284C263.721 254.284 265.225 254.284 266.786 254.198C268.579 254.198 270.314 254.111 272.049 254.111C274.16 254.024 276.271 254.024 278.353 253.967L279.712 253.88C331.27 252.293 375.715 246.058 399.31 242.075H399.542C396.997 211.019 384.592 182.821 365.478 160.395L413.74 120.478C420.477 115.023 421.374 105.181 415.879 98.4851Z" fill="white"/>
</svg>
