<svg width="512" height="512" viewBox="0 0 512 512" fill="none" xmlns="http://www.w3.org/2000/svg">
<g clip-path="url(#clip0)">
<path d="M472.495 363.292C531.743 243.73 482.847 98.7755 363.285 39.5282C243.722 -19.7192 98.7683 29.176 39.521 148.738C-19.7264 268.301 29.1687 413.255 148.731 472.502C268.294 531.75 413.248 482.855 472.495 363.292Z" fill="#472EDB"/>
<path d="M220.16 396.8C217.777 396.799 215.423 396.274 213.265 395.263C211.107 394.252 209.197 392.779 207.671 390.949L207.561 390.821C206.048 388.954 204.965 386.778 204.39 384.445C203.815 382.112 203.761 379.681 204.233 377.326C205.215 372.374 207.073 367.637 209.719 363.337C176.018 345.838 151.205 310.199 146.688 271.342C146.359 268.532 146.686 265.683 147.645 263.021C148.603 260.359 150.166 257.956 152.21 256C155.766 252.617 160.487 250.731 165.394 250.734C166.492 250.732 167.588 250.83 168.668 251.026C197.787 255.869 227.249 258.37 256.768 258.505C286.33 258.359 315.834 255.852 344.997 251.008C346.03 250.833 347.076 250.747 348.124 250.752C352.994 250.741 357.684 252.593 361.234 255.927C363.336 257.887 364.943 260.318 365.922 263.02C366.901 265.722 367.225 268.618 366.866 271.47C362.313 310.254 337.609 345.874 303.836 363.392C306.478 367.68 308.335 372.405 309.321 377.344C309.787 379.703 309.731 382.135 309.156 384.47C308.581 386.804 307.501 388.985 305.993 390.857L305.884 390.985C304.357 392.815 302.448 394.288 300.29 395.299C298.131 396.31 295.778 396.835 293.394 396.837L220.16 396.8ZM187.557 291.383C189.063 295.105 190.899 298.685 193.042 302.08L188.91 291.547L187.557 291.383Z" fill="white"/>
<path d="M165.394 260.718C165.891 260.724 166.387 260.773 166.875 260.864C196.587 265.808 226.648 268.364 256.768 268.507C286.888 268.361 316.948 265.805 346.661 260.864C347.143 260.775 347.633 260.732 348.123 260.736C350.446 260.735 352.682 261.617 354.377 263.205C355.312 264.085 356.027 265.172 356.465 266.379C356.903 267.586 357.053 268.878 356.901 270.153C352.311 309.339 325.303 344.923 289.737 358.693C289.474 358.795 289.242 358.964 289.064 359.184C288.887 359.403 288.769 359.664 288.723 359.943C288.677 360.222 288.704 360.507 288.801 360.772C288.899 361.037 289.064 361.272 289.28 361.454C294.52 366.115 298.075 372.375 299.392 379.264C299.58 380.166 299.564 381.098 299.346 381.993C299.127 382.888 298.713 383.724 298.131 384.438C297.55 385.153 296.816 385.729 295.984 386.124C295.152 386.52 294.242 386.725 293.321 386.725H220.178C219.263 386.725 218.36 386.524 217.532 386.135C216.703 385.746 215.971 385.18 215.387 384.475C214.804 383.754 214.387 382.913 214.166 382.013C213.944 381.112 213.925 380.173 214.107 379.264C215.403 372.368 218.962 366.1 224.219 361.454C224.439 361.274 224.607 361.038 224.703 360.771C224.8 360.503 224.822 360.215 224.768 359.936C224.731 359.656 224.617 359.392 224.44 359.173C224.262 358.954 224.028 358.787 223.762 358.693C188.197 344.923 161.189 309.321 156.599 270.153C156.461 268.874 156.622 267.581 157.07 266.375C157.517 265.169 158.239 264.084 159.177 263.205C160.865 261.615 163.094 260.726 165.413 260.718H165.394ZM207.47 330.203C208.757 330.189 209.988 329.678 210.907 328.777C211.79 327.944 212.346 326.822 212.473 325.614C212.601 324.407 212.292 323.194 211.602 322.194L197.486 286.19C197.233 285.077 196.646 284.068 195.802 283.3C194.959 282.531 193.9 282.04 192.768 281.893C188.16 281.344 184.027 280.741 180.535 280.247C180.28 280.22 180.022 280.22 179.767 280.247C179.105 280.248 178.451 280.39 177.849 280.665C177.246 280.939 176.709 281.339 176.274 281.838C175.748 282.402 175.375 283.091 175.189 283.84C175.004 284.588 175.012 285.372 175.214 286.117C179.75 303.416 190.075 318.64 204.471 329.253C205.321 329.892 206.352 330.244 207.415 330.258L207.47 330.203ZM165.358 240.658C157.871 240.635 150.665 243.505 145.243 248.667C142.056 251.666 139.609 255.365 138.096 259.471C136.582 263.577 136.043 267.979 136.521 272.329C136.521 272.329 136.521 272.475 136.521 272.53C138.955 291.779 145.589 310.259 155.953 326.661C166.317 343.064 180.159 356.989 196.498 367.451C195.56 370.03 194.82 372.677 194.286 375.369C193.523 379.174 193.609 383.1 194.538 386.868C195.467 390.636 197.217 394.152 199.662 397.166L199.863 397.403C202.331 400.365 205.421 402.747 208.913 404.381C212.405 406.015 216.213 406.86 220.069 406.857H293.211C297.052 406.849 300.843 405.998 304.319 404.365C307.794 402.731 310.869 400.355 313.326 397.403L313.545 397.166C315.99 394.152 317.739 390.636 318.669 386.868C319.598 383.1 319.684 379.174 318.921 375.369C318.378 372.677 317.632 370.031 316.69 367.451C333.021 356.996 346.857 343.083 357.221 326.694C367.585 310.305 374.223 291.84 376.667 272.603C377.241 268.235 376.777 263.792 375.312 259.637C373.847 255.481 371.424 251.729 368.238 248.686L368.11 248.539C362.688 243.473 355.544 240.656 348.123 240.658C346.537 240.659 344.953 240.787 343.387 241.042C314.756 245.786 285.79 248.232 256.768 248.357C227.795 248.227 198.878 245.781 170.295 241.042C168.678 240.751 167.038 240.604 165.394 240.603L165.358 240.658Z" fill="#472EDB"/>
<path d="M256.567 264.741C226.798 264.564 197.09 262.045 167.716 257.207H167.15C164.537 256.934 162.135 255.647 160.46 253.623C158.785 251.6 157.97 249 158.19 246.382C160.256 221.771 171.485 198.832 189.655 182.104C207.826 165.376 231.613 156.078 256.311 156.05C261.682 156.054 267.045 156.488 272.347 157.349L288.475 125.97C289.652 123.668 291.273 121.622 293.245 119.949C295.216 118.277 297.499 117.01 299.961 116.223C302.424 115.436 305.018 115.144 307.594 115.364C310.17 115.584 312.677 116.311 314.971 117.504L323.474 121.911C326.712 123.593 329.42 126.139 331.298 129.267C333.177 132.394 334.152 135.981 334.116 139.63C337.936 138.212 342.102 138.021 346.035 139.083C349.968 140.145 353.472 142.407 356.059 145.554L362.148 152.869C365.452 156.893 367.026 162.062 366.526 167.244C366.025 172.426 363.491 177.199 359.479 180.517L337.536 198.802C347.265 212.887 353.117 229.283 354.505 246.345C354.729 248.973 353.908 251.583 352.221 253.609C350.533 255.636 348.115 256.915 345.49 257.17C321.082 261.218 296.435 263.661 271.707 264.485H270.811H268.727H266.898H263.552C262.583 264.485 261.723 264.485 260.644 264.485C259.255 264.485 257.92 264.485 256.53 264.485L256.567 264.741Z" fill="white"/>
<path d="M305.956 125.275C307.477 125.279 308.974 125.642 310.327 126.336L318.866 130.761C321.122 131.939 322.822 133.96 323.596 136.384C324.37 138.809 324.155 141.44 322.999 143.707L308.078 172.745L334.903 150.565C335.87 149.763 336.985 149.16 338.186 148.791C339.386 148.421 340.647 148.293 341.898 148.411C343.148 148.53 344.362 148.895 345.471 149.484C346.581 150.073 347.562 150.875 348.361 151.845L354.468 159.269C356.081 161.229 356.85 163.749 356.607 166.275C356.364 168.802 355.128 171.129 353.17 172.745L323.657 197.193C335.666 211.262 342.945 228.752 344.466 247.186H344.32C320.127 251.221 295.692 253.634 271.177 254.409H270.354C269.074 254.409 267.794 254.409 266.496 254.501C265.198 254.592 264.393 254.501 263.278 254.501C262.162 254.501 261.449 254.501 260.443 254.501C259.108 254.501 257.81 254.501 256.494 254.501C227.171 254.319 197.908 251.825 168.978 247.04L168.119 246.949C170.015 224.867 180.128 204.301 196.459 189.318C212.79 174.335 234.148 166.026 256.311 166.034C263.552 166.033 270.767 166.911 277.796 168.649L297.417 130.487C298.227 128.92 299.452 127.605 300.958 126.686C302.463 125.767 304.192 125.279 305.956 125.275ZM305.956 105.161C300.507 105.151 295.161 106.645 290.505 109.477C285.85 112.31 282.066 116.372 279.57 121.216L266.624 146.395C263.186 146.066 259.748 145.902 256.311 145.902C229.078 145.912 202.843 156.153 182.804 174.593C162.764 193.034 150.384 218.329 148.114 245.467C147.679 250.704 149.31 255.904 152.659 259.953C156.008 264.003 160.809 266.581 166.034 267.136H166.327C196.138 272.024 226.285 274.573 256.494 274.761C257.865 274.761 259.273 274.761 260.791 274.761C261.705 274.761 262.619 274.761 263.79 274.761H265.399H267.227H268.782H271.086H271.47H272.055C297.098 273.95 322.063 271.507 346.788 267.447C351.954 266.826 356.678 264.227 359.968 260.197C363.259 256.167 364.859 251.019 364.434 245.833C363.163 230.119 358.456 214.875 350.647 201.179L365.897 188.526C371.938 183.513 375.751 176.314 376.505 168.5C377.258 160.686 374.891 152.891 369.92 146.816L363.886 139.063C361.224 135.814 357.9 133.171 354.134 131.31C350.369 129.449 346.25 128.414 342.052 128.274C339.415 121.662 334.489 116.218 328.174 112.933L319.579 108.489C315.374 106.316 310.709 105.181 305.975 105.179L305.956 105.161Z" fill="#472EDB"/>
<path opacity="0.3" d="M266.624 146.414L279.57 121.234C282.066 116.39 285.85 112.328 290.505 109.496C295.16 106.663 300.507 105.17 305.956 105.179C310.116 105.182 314.228 106.061 318.025 107.758C343.149 89.2891 373.028 77.8971 403.657 77.2754C374.63 53.4625 340.224 37.1038 303.433 29.6228C283.2 43.444 265.992 61.2392 252.858 81.9246C239.724 102.61 230.938 125.753 227.035 149.943C236.56 147.279 246.402 145.926 256.292 145.92C259.754 145.92 263.198 146.085 266.624 146.414Z" fill="white"/>
<path opacity="0.3" d="M476.453 183.863C445.498 168.809 410.854 163.018 376.686 167.186C376.451 171.239 375.383 175.199 373.549 178.821C371.714 182.442 369.153 185.646 366.025 188.233L350.775 200.887C355.257 208.762 358.722 217.173 361.088 225.92C409.582 229.815 456.978 254.171 484.407 294.199C490.799 257.322 488.068 219.441 476.453 183.863Z" fill="white"/>
<path opacity="0.3" d="M175.104 182.546C156.818 138.661 157.988 84.608 175.908 39.9177C140.32 53.4392 108.615 75.5282 83.6021 104.229C87.9175 153.893 112.859 201.143 150.637 229.87C154.723 212.303 163.133 196.036 175.104 182.546Z" fill="white"/>
<path opacity="0.3" d="M372.516 293.504C366.669 313.021 356.444 330.945 342.619 345.911C353.774 386.139 350.318 432.53 336.987 471.205C348.643 466.908 359.937 461.686 370.761 455.589C392.778 443.139 412.596 427.151 429.422 408.265C426.862 363.374 404.699 321.957 372.516 293.504Z" fill="white"/>
<path opacity="0.3" d="M220.16 406.82C216.305 406.823 212.496 405.978 209.004 404.344C205.512 402.71 202.423 400.328 199.954 397.367L199.753 397.129C199.351 396.635 199.004 396.105 198.638 395.593C173.509 415.279 143.915 428.468 112.476 433.993C141.481 457.495 175.763 473.598 212.37 480.914C237.672 461.377 257.841 435.98 271.141 406.912L220.16 406.82Z" fill="white"/>
<path opacity="0.3" d="M139.41 287.799C96.1282 279.771 54.4733 254.501 29.8973 221.001C24.3415 257.733 27.7929 295.265 39.9545 330.368C78.3545 346.185 124.453 349.733 164.59 338.615C152.645 323.681 144.057 306.349 139.41 287.799Z" fill="white"/>
<g opacity="0.1">
<path d="M362.057 77.5863C362.057 77.5863 364.087 78.6652 367.653 81.0972C372.811 84.6285 377.745 88.4759 382.427 92.6172C389.828 99.0406 396.712 106.035 403.017 113.536C411.416 123.249 418.856 133.751 425.234 144.896C433.091 158.107 439.498 172.128 444.343 186.715C445.795 190.621 447.016 194.608 448 198.656C449.097 202.99 450.139 206.354 451.291 211.621C453.135 220.065 454.461 228.614 455.259 237.221C457.208 256.084 456.507 275.128 453.175 293.797C449.762 313.028 443.778 331.713 435.383 349.349C426.952 367.02 416.149 383.458 403.273 398.208C396.638 405.714 389.242 412.51 381.202 418.487C373.574 423.963 365.542 428.853 357.175 433.115C328.062 448.069 296.151 456.788 263.479 458.715C250.674 459.557 237.818 459.202 225.079 457.655C215.367 456.547 205.753 454.714 196.315 452.169C190.288 450.589 184.354 448.672 178.542 446.427L172.416 443.995L178.962 444.453C183.205 444.837 189.458 445.056 197.248 445.221C205.038 445.385 214.583 445.019 225.28 444.16C237.17 443.054 248.976 441.185 260.626 438.565C274.25 435.443 287.609 431.261 300.581 426.057C314.811 420.407 328.512 413.504 341.522 405.431C348.148 401.281 354.512 396.725 360.576 391.79C366.389 386.851 371.689 381.337 376.393 375.333C386.589 362.451 395.276 348.444 402.286 333.586C409.255 318.721 414.541 303.124 418.048 287.086C421.376 271.537 422.935 255.661 422.693 239.762C423.022 232.613 421.778 223.835 421.266 215.79C420.974 213.047 420.187 208.475 419.694 205.074C419.2 201.673 418.45 197.76 417.682 194.103C414.975 180.484 411.14 167.114 406.217 154.13C398.649 134.214 388.833 115.227 376.96 97.536C372.404 90.588 367.428 83.9256 362.057 77.5863Z" fill="white"/>
</g>
<g opacity="0.1">
<path d="M158.007 434.853C156.119 433.771 154.288 432.593 152.521 431.324C147.352 427.807 142.417 423.959 137.746 419.804C130.293 413.395 123.365 406.399 117.028 398.885C108.645 389.178 101.223 378.682 94.8662 367.543C87.0032 354.33 80.5845 340.31 75.721 325.724C74.2777 321.809 73.0567 317.817 72.0639 313.765C70.985 309.449 69.9245 306.085 68.7725 300.8C66.9365 292.354 65.6115 283.805 64.8045 275.2C62.8706 256.329 63.5784 237.281 66.9073 218.606C73.7124 179.922 90.9546 143.832 116.772 114.231C123.403 106.721 130.8 99.9244 138.843 93.9521C146.458 88.4655 154.485 83.5747 162.852 79.3235C191.966 64.3712 223.877 55.6524 256.548 53.7235C269.354 52.8865 282.21 53.2477 294.948 54.8024C304.644 55.9225 314.241 57.7746 323.657 60.3429C329.68 61.9301 335.613 63.8407 341.431 66.0664L347.538 68.4984L340.992 68.0412C336.768 67.6572 330.514 67.4561 322.706 67.2915C314.898 67.1269 305.39 67.4744 294.692 68.3338C282.802 69.4461 270.996 71.3212 259.346 73.9475C245.761 77.0572 232.44 81.2207 219.502 86.4001C205.286 92.0858 191.593 98.9996 178.578 107.063C171.952 111.206 165.588 115.756 159.524 120.686C153.71 125.624 148.411 131.138 143.707 137.143C133.53 150.013 124.86 164.008 117.87 178.853C110.876 193.745 105.571 209.373 102.052 225.445C98.729 240.994 97.177 256.87 97.4262 272.768C97.0788 279.9 98.3222 288.695 98.8525 296.741C99.145 299.465 99.913 303.964 100.407 307.438C100.864 311.186 101.65 314.752 102.418 318.409C105.134 332.032 108.969 345.408 113.883 358.4C121.457 378.342 131.272 397.36 143.14 415.086C147.698 421.965 152.662 428.566 158.007 434.853Z" fill="white"/>
</g>
<path d="M266.624 146.414L279.57 121.234C282.066 116.39 285.85 112.328 290.505 109.496C295.16 106.663 300.507 105.17 305.956 105.179V105.179C310.116 105.182 314.228 106.061 318.025 107.758C343.149 89.2891 373.028 77.8971 403.657 77.2754C374.63 53.4625 340.224 37.1038 303.433 29.6228C283.2 43.444 265.992 61.2392 252.858 81.9246C239.724 102.61 230.938 125.753 227.035 149.943C236.56 147.279 246.402 145.926 256.292 145.92C259.754 145.92 263.198 146.085 266.624 146.414Z" stroke="#6C6CEA" stroke-width="5" stroke-linecap="round" stroke-linejoin="round"/>
<path d="M476.453 183.863C445.498 168.809 410.854 163.018 376.686 167.186C376.451 171.239 375.383 175.199 373.549 178.821C371.714 182.442 369.153 185.646 366.025 188.233L350.775 200.887C355.257 208.762 358.722 217.173 361.088 225.92C409.582 229.815 456.978 254.171 484.407 294.199C490.799 257.322 488.068 219.441 476.453 183.863V183.863Z" stroke="#6C6CEA" stroke-width="5" stroke-linecap="round" stroke-linejoin="round"/>
<path d="M175.104 182.546C156.818 138.661 157.988 84.608 175.908 39.9177C140.32 53.4392 108.615 75.5282 83.6021 104.229C87.9175 153.893 112.859 201.143 150.637 229.87C154.723 212.303 163.133 196.036 175.104 182.546Z" stroke="#6C6CEA" stroke-width="5" stroke-linecap="round" stroke-linejoin="round"/>
<path d="M372.516 293.504C366.669 313.021 356.444 330.945 342.619 345.911C353.774 386.139 350.318 432.53 336.987 471.205C348.643 466.908 359.937 461.686 370.761 455.589C392.778 443.139 412.596 427.151 429.422 408.265C426.862 363.374 404.699 321.957 372.516 293.504Z" stroke="#6C6CEA" stroke-width="5" stroke-linecap="round" stroke-linejoin="round"/>
<path d="M220.16 406.82C216.305 406.823 212.496 405.978 209.004 404.344C205.512 402.71 202.423 400.328 199.954 397.367L199.753 397.129C199.351 396.635 199.004 396.105 198.638 395.593C173.509 415.279 143.915 428.468 112.476 433.993C141.481 457.495 175.763 473.598 212.37 480.914C237.672 461.377 257.841 435.98 271.141 406.912L220.16 406.82Z" stroke="#6C6CEA" stroke-width="5" stroke-linecap="round" stroke-linejoin="round"/>
<path d="M139.41 287.799C96.1282 279.771 54.4733 254.501 29.8973 221.001C24.3415 257.733 27.7929 295.265 39.9545 330.368C78.3545 346.185 124.453 349.733 164.59 338.615C152.645 323.681 144.057 306.349 139.41 287.799Z" stroke="#6C6CEA" stroke-width="5" stroke-linecap="round" stroke-linejoin="round"/>
<path d="M256.713 22.9669C313.361 22.8873 368.1 43.4421 410.695 80.7885C453.289 118.135 480.824 169.716 488.152 225.889C495.479 282.061 482.098 338.98 450.509 386.003C418.92 433.027 371.286 466.936 316.513 481.391C261.739 495.846 203.576 489.857 152.898 464.545C102.219 439.233 62.4934 396.329 41.1485 343.856C19.8036 291.382 18.3004 232.931 36.9198 179.43C55.5393 125.929 93.0068 81.0404 142.318 53.1566C177.216 33.416 216.618 23.0174 256.713 22.9669ZM256.713 10.4594C197.135 10.5152 139.611 32.239 94.8685 71.5795C50.1262 110.92 21.2202 165.191 13.5411 224.272C5.86203 283.353 19.9342 343.211 53.1333 392.682C86.3324 442.153 136.392 477.86 193.976 493.144C251.56 508.427 312.738 502.245 366.1 475.749C419.462 449.253 461.366 404.253 483.996 349.14C506.626 294.027 508.438 232.565 489.094 176.214C469.75 119.864 430.57 72.4734 378.862 42.88C341.672 21.6006 299.56 10.4235 256.713 10.4594Z" fill="white"/>
</g>
<defs>
<clipPath id="clip0">
<rect width="512" height="512" fill="white"/>
</clipPath>
</defs>
</svg>
